:FULLY-SPECIFIED
:FORCE-ALL-JOINTS-BE-3DOF
:DEGREES
816
root -4.50688 14.673 -40.19 27.2145 -73.8694 -17.8937
lfemur -70.0809 20.3414 -22.9599
ltibia 86.7629 -0 0
lfoot -7.65955 9.30139 -0.0282666
ltoes -15.3907 0 0
rfemur -33.1421 -9.54042 22.8813
rtibia 71.8106 -0 0
rfoot -32.8576 -27.0669 0.0238787
rtoes -22.2077 0 0
lowerback 18.1965 0.474402 4.57368
upperback 0.27747 1.64867 1.28777
thorax -9.85272 0.571921 -1.6214
lowerneck -2.2367 12.8519 5.0935
upperneck -1.49016 17.095 -9.02788
head 1.23709 8.50708 -3.28371
lclavicle 4.22417e-15 7.85199e-15 0
lhumerus 103.35 -34.5124 20.3043
lradius 99.6263 -0 0
lwrist 16.0614 0 0
lhand -9.73518 23.5892 -0.0464766
lfingers 7.12502 -0 0
lthumb 16.2372 52.8953 -0.0492069
rclavicle 4.22417e-15 7.85199e-15 0
rhumerus 25.909 39.6391 -57.9772
rradius 65.7739 -0 0
rwrist -9.81792 0 0
rhand -12.7799 -40.0584 0.0283189
rfingers 7.12502 -0 0
rthumb 13.2993 -69.55 0.0500925
817
root -4.33782 14.6943 -40.2403 26.3572 -73.3296 -16.96
lfemur -70.196 20.4024 -23.2824
ltibia 87.0385 -0 0
lfoot -7.76985 9.45342 -0.0186841
ltoes -15.4096 0 0
rfemur -33.5107 -9.61647 23.1275
rtibia 71.8616 -0 0
rfoot -32.966 -27.1976 0.0157839
rtoes -22.1346 0 0
lowerback 18.2551 0.443927 4.62644
upperback 0.290572 1.62021 1.25096
thorax -9.86804 0.553985 -1.68576
lowerneck -2.2187 12.927 5.14005
upperneck -1.53901 17.1931 -9.14096
head 1.23727 8.5572 -3.32305
lclavicle 4.22417e-15 7.85199e-15 0
lhumerus 104.49 -34.6838 18.7729
lradius 100.92 -0 0
lwrist 17.1087 0 0
lhand -9.4658 23.4873 -0.0307184
lfingers 7.12502 -0 0
lthumb 16.4971 52.7835 -0.0325231
rclavicle 4.22417e-15 7.85199e-15 0
rhumerus 27.297 39.7279 -57.418
rradius 65.3681 -0 0
rwrist -9.32512 0 0
rhand -13.113 -40.1084 0.0187162
rfingers 7.12502 -0 0
rthumb 12.9803 -69.6424 0.0331068
818
root -4.16876 14.7155 -40.2906 25.7127 -72.8956 -16.2545
lfemur -70.2884 20.4508 -23.5404
ltibia 87.2586 -0 0
lfoot -7.85795 9.57488 -0.0108175
ltoes -15.4248 0 0
rfemur -33.8055 -9.67611 23.3246
rtibia 71.9023 -0 0
rfoot -33.0526 -27.3021 0.00913844
rtoes -22.0761 0 0
lowerback 18.3019 0.419539 4.66857
upperback 0.301054 1.59747 1.22154
thorax -9.88026 0.539641 -1.73718
lowerneck -2.20426 12.9871 5.17727
upperneck -1.5782 17.2714 -9.23142
head 1.23739 8.59725 -3.35448
lclavicle 4.22417e-15 7.85199e-15 0
lhumerus 105.407 -34.8027 17.5445
lradius 101.953 -0 0
lwrist 17.9454 0 0
lhand -9.25059 23.406 -0.0177838
lfingers 7.12502 -0 0
lthumb 16.7047 52.6943 -0.0188287
rclavicle 4.22417e-15 7.85199e-15 0
rhumerus 28.408 39.7913 -56.9688
rradius 65.0438 -0 0
rwrist -8.93137 0 0
rhand -13.3791 -40.1483 0.010835
rfingers 7.12502 -0 0
rthumb 12.7254 -69.7162 0.0191658
819
root -3.99969 14.7367 -40.3409 25.2614 -72.5759 -15.7584
lfemur -70.3562 20.4859 -23.7296
ltibia 87.42 -0 0
lfoot -7.92254 9.66392 -0.00493136
ltoes -15.4359 0 0
rfemur -34.0218 -9.7192 23.4693
rtibia 71.9321 -0 0
rfoot -33.116 -27.3787 0.00416596
rtoes -22.0333 0 0
lowerback 18.3362 0.401637 4.69945
upperback 0.308746 1.58081 1.19997
thorax -9.88922 0.529118 -1.77488
lowerneck -2.19365 13.0311 5.20458
upperneck -1.60703 17.3288 -9.29779
head 1.23747 8.62661 -3.37753
lclavicle 4.22417e-15 7.85199e-15 0
lhumerus 106.081 -34.8796 16.6413
lradius 102.711 -0 0
lwrist 18.5589 0 0
lhand -9.09282 23.3464 -0.00810669
lfingers 7.12502 -0 0
lthumb 16.8569 52.6288 -0.00858301
rclavicle 4.22417e-15 7.85199e-15 0
rhumerus 29.2235 39.8336 -56.6382
rradius 64.8061 -0 0
rwrist -8.64269 0 0
rhand -13.5742 -40.1776 0.00493892
rfingers 7.12502 -0 0
rthumb 12.5385 -69.7702 0.00873643
820
root -3.83063 14.758 -40.3912 24.9923 -72.3787 -15.4617
lfemur -70.398 20.5075 -23.846
ltibia 87.5194 -0 0
lfoot -7.96227 9.7187 -0.00126003
ltoes -15.4428 0 0
rfemur -34.1549 -9.74544 23.5584
rtibia 71.9504 -0 0
rfoot -33.1551 -27.4258 0.00106447
rtoes -22.007 0 0
lowerback 18.3573 0.390614 4.71844
upperback 0.313481 1.57055 1.18669
thorax -9.89472 0.52264 -1.79807
lowerneck -2.18711 13.0582 5.22138
upperneck -1.6248 17.3641 -9.33866
head 1.23751 8.64467 -3.39172
lclavicle 4.22417e-15 7.85199e-15 0
lhumerus 106.497 -34.9225 16.0848
lradius 103.177 -0 0
lwrist 18.9363 0 0
lhand -8.99575 23.3098 -0.00207131
lfingers 7.12502 -0 0
lthumb 16.9505 52.5886 -0.00219302
rclavicle 4.22417e-15 7.85199e-15 0
rhumerus 29.7257 39.8578 -56.4344
rradius 64.6599 -0 0
rwrist -8.46508 0 0
rhand -13.6943 -40.1956 0.0012619
rfingers 7.12502 -0 0
rthumb 12.4236 -69.8035 0.00223218
